<svg width="398" height="399" viewBox="0 0 398 399" fill="none" xmlns="http://www.w3.org/2000/svg">
<path d="M99.2576 61.1828C99.4709 60.4184 175.541 16.9865 193.835 6.55057C196.285 5.15319 199.231 5.14934 201.683 6.54189C220.035 16.9624 296.471 60.4181 296.258 61.1828M99.2576 61.1828L197.758 118.052M99.2576 61.1828C98.5 61.3138 99.2576 175.683 99.2576 175.683M296.258 61.1828C257.791 83.3916 197.758 118.052 197.758 118.052M296.258 61.1828C296.5 62.3138 296.258 175.683 296.258 175.683M197.758 118.052V232.552M197.758 118.052L99.2576 175.683M197.758 118.052L296.258 175.683M99.2576 175.683C99.2576 175.683 5.5 230.052 5.5 231.183M99.2576 175.683L197.758 232.552M197.758 232.552V337.183M197.758 232.552L296.258 286.683M197.758 232.552L296.258 175.683M197.758 232.552L100.443 286.683M296.258 175.683C296.258 175.683 392.5 230.314 392.386 231.183M197.758 337.183C197.758 337.183 295.5 393.44 296.258 392.683M197.758 337.183L197.649 337.245M296.258 392.683V286.683M296.258 392.683C296.909 393.237 370.504 350.044 388.466 339.488C390.907 338.053 392.388 335.449 392.391 332.618C392.411 312.38 392.486 231.735 392.386 231.183M296.258 286.683L392.386 231.183M100.443 391.998C99.6164 392.275 27.2835 349.946 9.44316 339.494C6.99393 338.059 5.5 335.446 5.5 332.607C5.5 312.407 5.5 232.171 5.5 231.183M100.443 391.998C100.443 350.87 100.443 286.683 100.443 286.683M100.443 391.998C101.5 392.314 197.649 337.245 197.649 337.245M5.5 231.183C42.5776 252.857 100.443 286.683 100.443 286.683M100.443 286.683L197.649 337.245" stroke="url(#paint0_linear_5_32)" stroke-width="11"/>
<defs>
<linearGradient id="paint0_linear_5_32" x1="5.5" y1="198.498" x2="392.386" y2="198.498" gradientUnits="userSpaceOnUse">
<stop stop-color="#ED3CFD"/>
<stop offset="0.490385" stop-color="#5D32FF"/>
<stop offset="1" stop-color="#32FBFC"/>
</linearGradient>
</defs>
</svg>
